<svg width="720" height="720" viewBox="0 0 720 720" fill="none" xmlns="http://www.w3.org/2000/svg">
<rect width="720" height="720" rx="130" fill="#99CA3C"/>
<path d="M530.956 211.127C543.495 211.127 556.034 212.769 568.125 216.352C579.022 219.486 589.172 224.711 598.129 231.727C606.786 238.593 613.802 247.55 618.43 257.7C623.654 269.343 626.192 281.882 625.893 294.57C626.341 311.438 622.012 328.007 613.205 342.486C604.1 356.667 593.203 369.505 580.664 380.849L494.982 458.172H625.893V509.671H429.601V458.023L543.495 346.666C546.779 343.382 550.212 339.8 553.795 336.068C557.377 332.336 560.661 328.455 563.498 324.275C566.483 320.245 568.871 315.916 570.961 311.289C572.902 306.81 573.797 301.884 573.797 296.958C573.947 291.435 572.752 285.763 570.215 280.837C567.976 276.21 564.841 272.179 560.96 268.746C556.93 265.313 552.451 262.775 547.525 261.133C542.301 259.342 536.629 258.297 531.106 258.446C519.91 257.998 508.864 261.88 500.356 269.194C492.146 276.807 486.921 287.107 485.876 298.153L433.631 293.973C434.377 281.434 437.811 269.343 443.334 258.148C448.409 248.147 455.574 239.34 464.232 232.174C473.039 225.159 483.189 219.785 494.086 216.501C506.028 212.769 518.417 210.978 530.956 211.127V211.127ZM130.52 262.447C184.556 200.2 278.747 193.483 340.993 247.52C403.239 301.556 409.957 395.747 355.92 457.993H411.151V509.492H261.73V455.903C300.839 448.44 331.29 417.839 338.903 378.73C349.203 325.738 314.721 274.687 261.73 264.387C208.738 254.088 157.687 288.569 147.387 341.561C137.088 394.552 171.719 445.603 224.561 455.903V508.298C195.304 504.566 167.688 492.326 145.447 472.92C83.2005 418.884 76.4832 324.693 130.52 262.447V262.447Z" fill="white"/>
</svg>
